<svg width="24" height="17" viewBox="0 0 24 17" fill="none" xmlns="http://www.w3.org/2000/svg">
<g clip-path="url(#clip0_49_123)">
<path d="M11.9522 0.610718H12.0473C16.2957 0.730504 19.3252 1.3364 21.1358 2.42845C23.0451 3.5839 23.9998 4.76052 23.9998 5.95811C23.7461 7.03605 23.2565 7.57505 22.5309 7.57505C22.4886 7.57506 22.4428 7.57153 22.3935 7.56448L18.0923 6.08495C17.6696 5.95814 17.4582 5.74326 17.4582 5.4403C17.4582 5.30645 17.5005 5.15145 17.5851 4.9753C18.0641 4.47509 18.3037 4.11225 18.3037 3.88679C18.3036 3.72476 18.1839 3.63317 17.9444 3.61202H6.06595C5.8264 3.63317 5.70663 3.72476 5.70664 3.88679C5.70664 4.11225 5.94618 4.47508 6.42526 4.9753C6.5098 5.1444 6.55207 5.29939 6.55208 5.4403C6.55207 5.74326 6.33719 5.95814 5.90742 6.08495L1.60627 7.56448C1.55695 7.57153 1.51116 7.57506 1.46889 7.57505C0.750255 7.57506 0.260605 7.03608 -6.10352e-05 5.95811C-6.25382e-05 4.76041 0.958105 3.58381 2.87444 2.42845C4.67805 1.35053 7.70394 0.744636 11.9522 0.610718ZM14.499 4.9753V4.1827H16.0208V5.78896C16.0208 6.31738 16.8698 6.78236 18.5677 7.18393C20.1951 7.85325 21.0089 9.19541 21.0089 11.2103V16.3886H2.99082V11.2103C2.99081 9.19541 3.80808 7.85322 5.44252 7.18393C7.1334 6.78236 7.97884 6.31736 7.97884 5.78896V4.1827H9.51116V4.9753H14.499ZM7.70379 10.756C7.70378 11.9326 8.11946 12.933 8.95082 13.7574C9.78216 14.5817 10.7791 14.9938 11.9415 14.9938C13.1251 14.9938 14.1291 14.5817 14.9534 13.7574C15.7777 12.9331 16.1898 11.9326 16.1898 10.756C16.1898 9.58649 15.7794 8.58612 14.9587 7.75466C14.1379 6.92331 13.1322 6.50764 11.9415 6.50763C10.765 6.50764 9.76458 6.92331 8.94018 7.75466C8.11587 8.58601 7.70379 9.58652 7.70379 10.756ZM14.3194 10.7454C14.3194 11.4007 14.0887 11.9608 13.6272 12.4258C13.1657 12.8908 12.6039 13.1233 11.9416 13.1233C11.2864 13.1233 10.728 12.8908 10.2665 12.4258C9.80501 11.9608 9.57428 11.4007 9.57428 10.7454C9.57427 10.0761 9.80501 9.51075 10.2665 9.0493C10.7279 8.58783 11.2863 8.3571 11.9416 8.35709C12.6038 8.35709 13.1657 8.58783 13.6272 9.0493C14.0887 9.51078 14.3194 10.0762 14.3194 10.7454Z" fill="#222222"/>
</g>
<defs>
<clipPath id="clip0_49_123">
<rect width="24" height="15.7786" fill="white" transform="translate(0 0.610718)"/>
</clipPath>
</defs>
</svg>
