<svg width="80" height="80" viewBox="0 0 80 80" fill="none" xmlns="http://www.w3.org/2000/svg">
<mask id="mask0_13_49" style="mask-type:alpha" maskUnits="userSpaceOnUse" x="0" y="0" width="80" height="80">
<rect width="80" height="80" fill="#D9D9D9"/>
</mask>
<g mask="url(#mask0_13_49)">
<path d="M20 53.5V58.5H60V53.5H20ZM27.5 26V21C27.5 19.625 27.9896 18.4479 28.9688 17.4688C29.9479 16.4896 31.125 16 32.5 16H47.5C48.875 16 50.0521 16.4896 51.0312 17.4688C52.0104 18.4479 52.5 19.625 52.5 21V26H60C61.375 26 62.5521 26.4896 63.5312 27.4688C64.5104 28.4479 65 29.625 65 31V58.5C65 59.875 64.5104 61.0521 63.5312 62.0312C62.5521 63.0104 61.375 63.5 60 63.5H20C18.625 63.5 17.4479 63.0104 16.4688 62.0312C15.4896 61.0521 15 59.875 15 58.5V31C15 29.625 15.4896 28.4479 16.4688 27.4688C17.4479 26.4896 18.625 26 20 26H27.5ZM20 46H60V31H52.5V36H47.5V31H32.5V36H27.5V31H20V46ZM32.5 26H47.5V21H32.5V26Z" fill="#FCC33A"/>
</g>
</svg>
