<svg width="80" height="80" viewBox="0 0 80 80" fill="none" xmlns="http://www.w3.org/2000/svg">
<mask id="mask0_13_214" style="mask-type:alpha" maskUnits="userSpaceOnUse" x="0" y="0" width="80" height="80">
<rect width="80" height="80" fill="#FCC33A"/>
</mask>
<g mask="url(#mask0_13_214)">
<path d="M37 63.3334H42.8334V59.1668C45.6111 58.6668 48 57.5834 50 55.9168C52 54.2501 53 51.7779 53 48.5001C53 46.1668 52.3334 44.0279 51 42.0834C49.6667 40.139 47 38.4445 43 37.0001C39.6667 35.889 37.3611 34.9167 36.0834 34.0834C34.8056 33.2501 34.1667 32.1112 34.1667 30.6667C34.1667 29.2223 34.6806 28.0834 35.7084 27.2501C36.7361 26.4167 38.2223 26.0001 40.1667 26.0001C41.9445 26.0001 43.3334 26.4306 44.3334 27.2917C45.3334 28.1529 46.0556 29.2223 46.5 30.5001L51.8334 28.3334C51.2223 26.389 50.0973 24.6945 48.4584 23.2501C46.8195 21.8056 45 21.0001 43 20.8334V16.6667H37.1667V20.8334C34.3889 21.4445 32.2223 22.6667 30.6667 24.5001C29.1111 26.3334 28.3334 28.389 28.3334 30.6667C28.3334 33.2779 29.0973 35.389 30.625 37.0001C32.1528 38.6112 34.5556 40.0001 37.8334 41.1668C41.3334 42.4445 43.7639 43.5834 45.125 44.5834C46.4861 45.5834 47.1667 46.889 47.1667 48.5001C47.1667 50.3334 46.5139 51.6806 45.2084 52.5417C43.9028 53.4029 42.3334 53.8334 40.5 53.8334C38.6667 53.8334 37.0417 53.264 35.625 52.1251C34.2084 50.9862 33.1667 49.2779 32.5 47.0001L27 49.1668C27.7778 51.8334 28.9861 53.9862 30.625 55.6251C32.2639 57.264 34.3889 58.389 37 59.0001V63.3334ZM40 73.3334C35.3889 73.3334 31.0556 72.4584 27 70.7084C22.9445 68.9584 19.4167 66.5834 16.4167 63.5834C13.4167 60.5834 11.0417 57.0556 9.2917 53.0001C7.5417 48.9445 6.6667 44.6112 6.6667 40.0001C6.6667 35.389 7.5417 31.0556 9.2917 27.0001C11.0417 22.9445 13.4167 19.4167 16.4167 16.4167C19.4167 13.4167 22.9445 11.0417 27 9.29175C31.0556 7.54175 35.3889 6.66675 40 6.66675C44.6111 6.66675 48.9445 7.54175 53 9.29175C57.0556 11.0417 60.5834 13.4167 63.5834 16.4167C66.5834 19.4167 68.9584 22.9445 70.7084 27.0001C72.4584 31.0556 73.3334 35.389 73.3334 40.0001C73.3334 44.6112 72.4584 48.9445 70.7084 53.0001C68.9584 57.0556 66.5834 60.5834 63.5834 63.5834C60.5834 66.5834 57.0556 68.9584 53 70.7084C48.9445 72.4584 44.6111 73.3334 40 73.3334ZM40 66.6668C47.4445 66.6668 53.75 64.0834 58.9167 58.9168C64.0834 53.7501 66.6667 47.4445 66.6667 40.0001C66.6667 32.5556 64.0834 26.2501 58.9167 21.0834C53.75 15.9167 47.4445 13.3334 40 13.3334C32.5556 13.3334 26.25 15.9167 21.0834 21.0834C15.9167 26.2501 13.3334 32.5556 13.3334 40.0001C13.3334 47.4445 15.9167 53.7501 21.0834 58.9168C26.25 64.0834 32.5556 66.6668 40 66.6668Z" fill="#FCC33A"/>
</g>
</svg>
