<svg width="45" height="45" viewBox="0 0 45 45" fill="none" xmlns="http://www.w3.org/2000/svg">
<g clip-path="url(#clip0_4_570)">
<path d="M19.9526 10.3356V2.09302" stroke="#913938" stroke-width="3" stroke-miterlimit="10" stroke-linecap="square"/>
<path d="M25.4469 10.3356V2.09302" stroke="#913938" stroke-width="3" stroke-miterlimit="10" stroke-linecap="square"/>
<path d="M19.9526 4.84009H25.4478" stroke="#913938" stroke-width="3" stroke-miterlimit="10" stroke-linecap="square"/>
<path d="M35.0637 10.3353H36.6335V8.76556H35.0637V10.3353ZM10.3359 10.3353V8.76556H8.76612V10.3353H10.3359ZM35.0637 30.942H33.494V32.5118H35.0637V30.942ZM43.3062 30.942H44.8759V29.3722H43.3062V30.942ZM43.3062 43.3059V44.8757H44.8759V43.3059H43.3062ZM2.09308 43.3059H0.523315V44.8757H2.09308V43.3059ZM2.09308 30.942V29.3722H0.523315V30.942H2.09308ZM10.3359 30.942V32.5118H11.9057V30.942H10.3359ZM35.0637 8.76556H10.3359V11.9051H35.0637V8.76556ZM36.6335 30.942V10.3353H33.494V30.942H36.6335ZM43.3062 29.3722H35.0637V32.5118H43.3062V29.3722ZM44.8759 43.3059V30.942H41.7364V43.3059H44.8759ZM2.09308 44.8757H43.3062V41.7361H2.09308V44.8757ZM0.523315 30.942V43.3059H3.66285V30.942H0.523315ZM10.3359 29.3722H2.09308V32.5118H10.3359V29.3722ZM8.76612 10.3353V30.942H11.9057V10.3353H8.76612Z" fill="#913938"/>
<path d="M15.7759 15.7764H18.5234" stroke="#913938" stroke-width="3" stroke-miterlimit="10" stroke-linecap="square"/>
<path d="M26.7667 15.7764H29.5143" stroke="#913938" stroke-width="3" stroke-miterlimit="10" stroke-linecap="square"/>
<path d="M15.7769 21.2716H18.5244" stroke="#913938" stroke-width="3" stroke-miterlimit="10" stroke-linecap="square"/>
<path d="M26.7667 21.2716H29.5143" stroke="#913938" stroke-width="3" stroke-miterlimit="10" stroke-linecap="square"/>
<path d="M15.7769 26.7667H18.5244" stroke="#913938" stroke-width="3" stroke-miterlimit="10" stroke-linecap="square"/>
<path d="M26.7667 26.7667H29.5143" stroke="#913938" stroke-width="3" stroke-miterlimit="10" stroke-linecap="square"/>
<path d="M15.7769 32.262H18.5244" stroke="#913938" stroke-width="3" stroke-miterlimit="10" stroke-linecap="square"/>
<path d="M26.7667 32.262H29.5143" stroke="#913938" stroke-width="3" stroke-miterlimit="10" stroke-linecap="square"/>
</g>
<defs>
<clipPath id="clip0_4_570">
<rect width="45" height="45" fill="white"/>
</clipPath>
</defs>
</svg>
