<svg width="70" height="70" viewBox="0 0 70 70" fill="none" xmlns="http://www.w3.org/2000/svg">
<mask id="mask0_13_205" style="mask-type:alpha" maskUnits="userSpaceOnUse" x="0" y="0" width="70" height="70">
<rect width="70" height="70" fill="#FCC33A"/>
</mask>
<g mask="url(#mask0_13_205)">
<path d="M5.83333 61.25V8.75H35V20.4167H64.1667V61.25H5.83333ZM11.6667 55.4167H17.5V49.5833H11.6667V55.4167ZM11.6667 43.75H17.5V37.9167H11.6667V43.75ZM11.6667 32.0833H17.5V26.25H11.6667V32.0833ZM11.6667 20.4167H17.5V14.5833H11.6667V20.4167ZM23.3333 55.4167H29.1667V49.5833H23.3333V55.4167ZM23.3333 43.75H29.1667V37.9167H23.3333V43.75ZM23.3333 32.0833H29.1667V26.25H23.3333V32.0833ZM23.3333 20.4167H29.1667V14.5833H23.3333V20.4167ZM35 55.4167H58.3333V26.25H35V32.0833H40.8333V37.9167H35V43.75H40.8333V49.5833H35V55.4167ZM46.6667 37.9167V32.0833H52.5V37.9167H46.6667ZM46.6667 49.5833V43.75H52.5V49.5833H46.6667Z" fill="#FCC33A"/>
</g>
</svg>
