<svg width="80" height="80" viewBox="0 0 80 80" fill="none" xmlns="http://www.w3.org/2000/svg">
<mask id="mask0_13_217" style="mask-type:alpha" maskUnits="userSpaceOnUse" x="0" y="0" width="80" height="80">
<rect width="80" height="80" fill="#FCC33A"/>
</mask>
<g mask="url(#mask0_13_217)">
<path d="M30 73.3334V29.2501C24.9444 27.9167 20.9028 25.1251 17.875 20.8751C14.8472 16.6251 13.3333 11.889 13.3333 6.66675H20C20 11.2779 21.4861 15.2084 24.4583 18.4584C27.4305 21.7084 31.2222 23.3334 35.8333 23.3334H44.1666C45.8333 23.3334 47.3889 23.639 48.8333 24.2501C50.2778 24.8612 51.5833 25.7501 52.75 26.9167L67.8333 42.0001L63.1666 46.6667L50 33.5001V73.3334H43.3333V53.3334H36.6666V73.3334H30ZM40 20.0001C38.1666 20.0001 36.5972 19.3473 35.2916 18.0417C33.9861 16.7362 33.3333 15.1667 33.3333 13.3334C33.3333 11.5001 33.9861 9.93064 35.2916 8.62508C36.5972 7.31953 38.1666 6.66675 40 6.66675C41.8333 6.66675 43.4028 7.31953 44.7083 8.62508C46.0139 9.93064 46.6666 11.5001 46.6666 13.3334C46.6666 15.1667 46.0139 16.7362 44.7083 18.0417C43.4028 19.3473 41.8333 20.0001 40 20.0001Z" fill="#FCC33A"/>
</g>
</svg>
