<svg width="45" height="45" viewBox="0 0 45 45" fill="none" xmlns="http://www.w3.org/2000/svg">
<g clip-path="url(#clip0_4_483)">
<path d="M28.9188 5.02847L39.9277 16.0373" stroke="#913938" stroke-width="3" stroke-miterlimit="10"/>
<path d="M24.4589 7.35713C18.0288 5.02818 11.3161 6.42018 5.66327 13.8988L11.5479 19.7976" stroke="#913938" stroke-width="3" stroke-miterlimit="10"/>
<path d="M25.202 33.453L31.1008 39.3376C38.5794 33.6847 39.9714 26.9721 37.6424 20.542" stroke="#913938" stroke-width="3" stroke-miterlimit="10"/>
<path d="M19.795 36.5106L8.48944 25.2049C8.48944 25.2049 17.6654 3.00637 43.3333 1.66666C41.8819 27.2244 19.795 36.5106 19.795 36.5106Z" stroke="#913938" stroke-width="3" stroke-miterlimit="10" stroke-linecap="square"/>
<path d="M26.1543 22.3793C28.1055 22.3793 29.6873 20.7975 29.6873 18.8463C29.6873 16.8951 28.1055 15.3133 26.1543 15.3133C24.203 15.3133 22.6213 16.8951 22.6213 18.8463C22.6213 20.7975 24.203 22.3793 26.1543 22.3793Z" stroke="#913938" stroke-width="3" stroke-miterlimit="10" stroke-linecap="square"/>
<path d="M4.07902 34.9255C4.87862 34.1532 5.94955 33.7258 7.06116 33.7355C8.17278 33.7452 9.2361 34.1911 10.0222 34.9771C10.8083 35.7632 11.2541 36.8265 11.2638 37.9381C11.2734 39.0498 10.8461 40.1207 10.0739 40.9203C8.41894 42.5765 1.66669 43.3326 1.66669 43.3326C1.66669 43.3326 2.42275 36.5803 4.07902 34.9255Z" stroke="#913938" stroke-width="3" stroke-miterlimit="10" stroke-linecap="square"/>
</g>
<defs>
<clipPath id="clip0_4_483">
<rect width="45" height="45" fill="white"/>
</clipPath>
</defs>
</svg>
