<svg width="80" height="80" viewBox="0 0 80 80" fill="none" xmlns="http://www.w3.org/2000/svg">
<mask id="mask0_13_211" style="mask-type:alpha" maskUnits="userSpaceOnUse" x="0" y="0" width="80" height="80">
<rect width="80" height="80" fill="#FCC33A"/>
</mask>
<g mask="url(#mask0_13_211)">
<path d="M20 73.3334V59.0001C16.8333 56.1112 14.375 52.7362 12.625 48.8751C10.875 45.014 10 40.9445 10 36.6667C10 28.3334 12.9167 21.2501 18.75 15.4167C24.5833 9.58341 31.6667 6.66675 40 6.66675C46.9444 6.66675 53.0972 8.70841 58.4583 12.7917C63.8194 16.8751 67.3056 22.1945 68.9167 28.7501L73.25 45.8334C73.5278 46.889 73.3333 47.8473 72.6667 48.7084C72 49.5695 71.1111 50.0001 70 50.0001H63.3333V60.0001C63.3333 61.8334 62.6806 63.4029 61.375 64.7084C60.0694 66.014 58.5 66.6668 56.6667 66.6668H50V73.3334H43.3333V60.0001H56.6667V43.3334H65.6667L62.5 30.4167C61.2222 25.3612 58.5 21.2501 54.3333 18.0834C50.1667 14.9167 45.3889 13.3334 40 13.3334C33.5556 13.3334 28.0556 15.5834 23.5 20.0834C18.9444 24.5834 16.6667 30.0556 16.6667 36.5001C16.6667 39.8334 17.3472 43.0001 18.7083 46.0001C20.0694 49.0001 22 51.6667 24.5 54.0001L26.6667 56.0001V73.3334H20ZM36.6667 50.0001H43.3333L43.8333 45.8334C44.2778 45.6667 44.6806 45.4723 45.0417 45.2501C45.4028 45.0279 45.7222 44.7779 46 44.5001L49.8333 46.1668L53.1667 40.5001L49.8333 38.0001C49.9444 37.5556 50 37.1112 50 36.6667C50 36.2223 49.9444 35.7779 49.8333 35.3334L53.1667 32.8334L49.8333 27.1667L46 28.8334C45.7222 28.5556 45.4028 28.3056 45.0417 28.0834C44.6806 27.8612 44.2778 27.6667 43.8333 27.5001L43.3333 23.3334H36.6667L36.1667 27.5001C35.7222 27.6667 35.3194 27.8612 34.9583 28.0834C34.5972 28.3056 34.2778 28.5556 34 28.8334L30.1667 27.1667L26.8333 32.8334L30.1667 35.3334C30.0556 35.7779 30 36.2223 30 36.6667C30 37.1112 30.0556 37.5556 30.1667 38.0001L26.8333 40.5001L30.1667 46.1668L34 44.5001C34.2778 44.7779 34.5972 45.0279 34.9583 45.2501C35.3194 45.4723 35.7222 45.6667 36.1667 45.8334L36.6667 50.0001ZM40 41.6667C38.6111 41.6667 37.4306 41.1806 36.4583 40.2084C35.4861 39.2362 35 38.0556 35 36.6667C35 35.2779 35.4861 34.0973 36.4583 33.1251C37.4306 32.1529 38.6111 31.6667 40 31.6667C41.3889 31.6667 42.5694 32.1529 43.5417 33.1251C44.5139 34.0973 45 35.2779 45 36.6667C45 38.0556 44.5139 39.2362 43.5417 40.2084C42.5694 41.1806 41.3889 41.6667 40 41.6667Z" fill="#FCC33A"/>
</g>
</svg>
